<svg xmlns="http://www.w3.org/2000/svg" viewBox="0 0 24 24" fill="none" class="categoryArrow">
    <g clip-path="url(#clip0_470_4256)">
    <path fill-rule="evenodd" clip-rule="evenodd" d="M17.6761 12.2817H6.09866C5.94373 12.2817 5.83105 12.155 5.83105 12C5.83105 11.8451 5.94373 11.7324 6.09866 11.7324H17.6761C17.8311 11.7324 17.9437 11.8451 17.9437 12C17.9437 12.155 17.8311 12.2817 17.6761 12.2817Z" fill="white"></path>
    <path fill-rule="evenodd" clip-rule="evenodd" d="M14.2679 15.5352C14.1975 15.5352 14.113 15.5071 14.0566 15.4507C13.9581 15.324 13.9581 15.155 14.0707 15.0564L17.4792 12L14.0707 8.95777C13.9581 8.85918 13.9581 8.67608 14.0566 8.56341C14.1552 8.45073 14.3243 8.45073 14.451 8.54932L18.0848 11.7888C18.1412 11.8451 18.1834 11.9296 18.1834 12C18.1834 12.0845 18.1412 12.155 18.0848 12.2254L14.451 15.4648C14.4088 15.5071 14.3243 15.5352 14.2679 15.5352Z" fill="white"></path>
    <path fill-rule="evenodd" clip-rule="evenodd" d="M12 24C5.38028 24 0 18.6338 0 12C0 5.38028 5.38028 0 12 0C18.6338 0 24 5.39437 24 12C24 18.6056 18.6338 24 12 24ZM12 0.549296C5.69014 0.549296 0.549296 5.69014 0.549296 12C0.549296 18.3099 5.69014 23.4507 12 23.4507C18.3099 23.4507 23.4507 18.3099 23.4507 12C23.4507 5.69014 18.3099 0.549296 12 0.549296Z" fill="white"></path>
    </g>
    <defs>
    <clipPath id="clip0_470_4256">
    <rect width="24" height="24" fill="white"></rect>
    </clipPath>
    </defs>
</svg>